<?xml version="1.0" encoding="UTF-8" standalone="no"?>
<svg
   version="1.1"
   id="Layer_1"
   x="0px"
   y="0px"
   width="100%"
   viewBox="0 0 1024 1024"
   enable-background="new 0 0 1024 1024"
   xml:space="preserve"
   sodipodi:docname="logo.svg"
   inkscape:version="1.3.2 (091e20e, 2023-11-25, custom)"
   xmlns:inkscape="http://www.inkscape.org/namespaces/inkscape"
   xmlns:sodipodi="http://sodipodi.sourceforge.net/DTD/sodipodi-0.dtd"
   xmlns="http://www.w3.org/2000/svg"
   xmlns:svg="http://www.w3.org/2000/svg"><defs
   id="defs44" /><sodipodi:namedview
   id="namedview44"
   pagecolor="#ffffff"
   bordercolor="#000000"
   borderopacity="0.25"
   inkscape:showpageshadow="2"
   inkscape:pageopacity="0.0"
   inkscape:pagecheckerboard="0"
   inkscape:deskcolor="#d1d1d1"
   inkscape:zoom="0.36811145"
   inkscape:cx="-483.5492"
   inkscape:cy="332.77965"
   inkscape:window-width="1920"
   inkscape:window-height="1009"
   inkscape:window-x="-8"
   inkscape:window-y="-8"
   inkscape:window-maximized="1"
   inkscape:current-layer="layer5" />












































<g
   inkscape:groupmode="layer"
   id="layer1"
   inkscape:label="Primary Strokes"><path
     fill="#AFDE36"
     opacity="1.000000"
     stroke="none"
     d=" M798.847046,161.194000   C812.566650,169.171906 824.066895,178.836456 830.293152,193.981522   C826.341553,191.773743 822.387512,189.570206 818.438721,187.357422   C802.863159,178.629272 787.102722,170.274231 769.292114,167.032593   C726.699158,159.280426 689.756348,179.003036 671.273743,220.019455   C666.315796,231.022064 663.361084,242.928558 659.510803,254.428131   C658.756836,256.680115 658.113464,258.969177 657.419067,261.241119   C656.782104,261.136627 656.145081,261.032166 655.508118,260.927704   C655.976807,253.269730 655.949890,245.542358 657.011230,237.967422   C659.710693,218.698959 666.552307,200.909576 678.055542,185.143036   C699.698059,155.479462 729.951111,146.915665 764.859802,150.554321   C776.703308,151.788818 787.970642,155.380066 798.847046,161.194000  z"
     id="path11"
     style="fill:#1282a2;fill-opacity:1" /><path
     fill="#80BDC3"
     opacity="1.000000"
     stroke="none"
     d=" M450.979889,823.220703   C488.671295,822.125549 522.475403,811.235474 552.887939,788.708679   C552.003601,790.457336 551.271118,792.304443 550.210876,793.938965   C541.747742,806.986450 529.952759,816.449768 516.591492,823.885437   C475.407715,846.804932 433.082581,847.072083 390.130798,829.310425   C376.206696,823.552429 363.089691,816.343018 352.595337,805.177734   C351.184265,803.676392 350.051239,801.913635 349.216461,799.367554   C381.298309,815.145996 414.603088,824.777283 450.979889,823.220703  z"
     id="path12"
     style="fill:#1282a2;fill-opacity:1" /><path
     fill="#82BEC4"
     opacity="1.000000"
     stroke="none"
     d=" M266.209839,302.738068   C256.880127,276.811249 254.832809,250.603271 260.880829,224.193039   C270.134979,183.782440 302.928345,158.894089 344.414215,160.807693   C356.449921,161.362854 368.410553,164.159500 380.323608,166.370438   C383.725708,167.001816 386.839813,169.184692 390.085999,170.656128   C389.956024,171.180206 389.826050,171.704269 389.696075,172.228348   C388.192596,172.228348 386.686646,172.284698 385.185944,172.219757   C367.687866,171.462646 350.208466,171.264526 332.902557,174.573395   C295.665527,181.693115 275.680511,202.698029 269.934082,240.246353   C266.617828,261.915436 267.957428,283.408936 271.501465,304.880615   C271.853760,307.014984 272.156799,309.157990 272.442810,311.302307   C272.482300,311.598389 272.290375,311.925354 271.789124,313.773621   C269.630280,309.536926 267.989685,306.317322 266.209839,302.738068  z"
     id="path13"
     style="fill:#1282a2;fill-opacity:1" /><path
     fill="#81BEC2"
     opacity="1.000000"
     stroke="none"
     d=" M844.414368,783.330261   C847.738770,775.875488 850.893799,768.756531 854.048767,761.637634   C854.682739,761.671509 855.316650,761.705383 855.950562,761.739258   C856.121460,767.530945 857.158997,773.451904 856.317078,779.092346   C852.117004,807.231934 835.356079,826.842651 811.938599,841.188660   C789.595642,854.876343 764.811096,859.700195 738.977844,857.260986   C725.994873,856.035217 713.211914,852.469360 700.419434,849.601196   C697.191040,848.877319 694.273071,846.768921 691.212463,845.296814   C691.342468,844.888184 691.472473,844.479553 691.602539,844.070923   C698.733765,844.904663 705.852417,845.871155 712.998535,846.547791   C736.631409,848.785400 759.904053,847.566589 782.559937,839.591125   C811.006165,829.577332 830.853516,810.215942 844.414368,783.330261  z"
     id="path14"
     style="fill:#1282a2;fill-opacity:1" /><path
     fill="#7EB9BD"
     opacity="1.000000"
     stroke="none"
     d=" M206.198517,498.311584   C272.553406,496.062927 338.430695,493.835327 404.714905,491.593964   C404.714905,496.758026 404.714905,500.978546 404.714905,505.161469   C389.677094,508.948822 176.573792,505.382812 170.099747,500.366302   C182.727951,499.645355 194.224442,498.989014 206.198517,498.311584  z"
     id="path15"
     style="fill:#1282a2;fill-opacity:1" /><path
     fill="#80BEC2"
     opacity="1.000000"
     stroke="none"
     d=" M648.421082,480.522400   C654.361755,480.026642 659.833923,479.477173 665.319824,479.199860   C667.068665,479.111511 669.104858,479.298645 670.580078,480.125793   C677.526855,484.020905 684.324402,488.182220 691.029175,493.420959   C647.650269,495.159668 604.271362,496.898376 560.243652,498.663086   C559.898743,494.502808 559.606750,490.980682 559.251038,486.690063   C589.231506,484.623047 618.594727,482.598602 648.421082,480.522400  z"
     id="path17"
     style="fill:#1282a2;fill-opacity:1" /><path
     fill="#82BEC2"
     opacity="1.000000"
     stroke="none"
     d=" M775.183228,818.182678   C752.626099,824.695007 731.196777,823.491394 710.701843,812.745239   C710.718079,812.235962 710.734314,811.726746 710.750488,811.217468   C713.060913,811.321838 715.378113,811.346313 717.680542,811.543518   C732.619263,812.823303 747.300537,811.692017 761.626221,807.018250   C781.897522,800.404663 796.524109,787.393188 805.717224,768.200745   C807.147583,765.214600 808.603394,762.240723 810.703491,757.907288   C812.126892,761.052673 813.397522,763.069824 813.977234,765.269226   C817.924255,780.242981 811.992920,796.866455 798.129578,806.529297   C791.262634,811.315552 783.127563,814.282532 775.183228,818.182678  z"
     id="path18"
     style="fill:#1282a2;fill-opacity:1" /><path
     fill="#82BEC3"
     opacity="1.000000"
     stroke="none"
     d=" M319.945251,221.994720   C317.849396,225.227371 316.242676,228.405579 313.994019,231.034760   C312.532288,232.743866 309.955017,234.850021 308.207764,234.586731   C306.433105,234.319290 304.293823,231.597717 303.660767,229.537170   C301.715179,223.204514 302.853760,216.994019 306.129913,211.256119   C312.039795,200.905457 321.263489,195.298553 332.868805,194.286789   C346.448669,193.102875 358.988190,196.694687 369.866150,205.102127   C372.391937,207.054306 374.306458,209.797424 376.502228,212.176590   C376.269867,212.526642 376.037506,212.876678 375.805176,213.226730   C369.857788,212.321320 363.936829,211.102600 357.955627,210.598862   C352.009766,210.098145 345.934631,209.705048 340.040253,210.367935   C332.005676,211.271500 325.239685,215.210541 319.945251,221.994720  z"
     id="path19"
     style="fill:#1282a2;fill-opacity:1" /><path
     fill="#7DBCC0"
     opacity="1.000000"
     stroke="none"
     d=" M821.045715,215.959030   C818.180603,214.443909 815.126648,213.201324 812.481750,211.368408   C797.813843,201.203476 782.424133,192.812958 764.280945,190.857544   C736.122864,187.822739 711.721741,196.307114 690.623291,214.906479   C689.682617,215.735748 688.697998,216.515076 687.362122,216.999207   C690.507935,209.592590 695.085388,203.264572 701.176086,198.021637   C728.062866,174.877304 769.306152,173.489120 799.478699,195.378464   C807.329041,201.073685 813.831909,208.626266 820.982910,215.656906   C821.012207,215.988052 821.045715,215.959030 821.045715,215.959030  z"
     id="path20"
     style="fill:#1282a2;fill-opacity:1" /><path
     fill="#80BCC0"
     opacity="1.000000"
     stroke="none"
     d=" M174.988312,551.680664   C173.364120,551.752380 172.131958,551.752380 170.899811,551.752380   C170.798996,551.461548 170.698196,551.170776 170.597382,550.879944   C172.132645,550.086670 173.617706,549.170776 175.210587,548.518127   C207.614227,535.240540 241.165222,528.797424 276.237488,532.050354   C287.850189,533.127441 298.805817,536.651245 308.214661,543.748474   C311.359741,546.120789 313.659119,549.614258 316.345093,552.595215   C316.002533,553.010437 315.659973,553.425659 315.317444,553.840820   C314.628418,553.656128 313.869751,553.599548 313.260559,553.268127   C296.463898,544.129700 278.329254,540.448792 259.404205,540.427917   C232.773224,540.398560 206.731598,545.229736 180.761322,550.497375   C178.966339,550.861389 177.173950,551.238098 174.988312,551.680664  z"
     id="path21"
     style="fill:#1282a2;fill-opacity:1" /><path
     fill="#7FB8C0"
     opacity="1.000000"
     stroke="none"
     d=" M722.993408,675.896851   C724.926697,686.840637 726.770386,697.384460 728.614136,707.928284   C715.782410,700.069519 705.862183,662.301819 710.866699,643.691711   C717.056213,654.052490 719.827271,664.835876 722.993408,675.896851  z"
     id="path25"
     style="fill:#1282a2;fill-opacity:1" /><path
     fill="#82BEC4"
     opacity="1.000000"
     stroke="none"
     d=" M263.337891,848.213257   C257.799713,853.295776 252.552216,854.106262 247.286285,850.940308   C243.033539,848.383362 240.827927,843.358276 241.845856,838.544983   C243.013199,833.025085 247.672150,828.979980 253.460327,828.578430   C258.240814,828.246826 261.890503,830.375610 264.280396,834.355957   C267.027283,838.930786 266.563049,843.542908 263.337891,848.213257  z"
     id="path26"
     style="fill:#1282a2;fill-opacity:1" /><path
     fill="#7EBAC1"
     opacity="1.000000"
     stroke="none"
     d=" M845.078735,476.968445   C841.003723,477.239990 837.384827,477.488098 834.105530,477.712891   C842.456726,465.636169 850.813721,453.551147 859.086304,441.588104   C861.465759,448.457275 861.823425,456.156830 859.558472,463.980988   C859.236572,465.093079 858.602966,466.124878 858.356079,467.247162   C856.836365,474.154785 853.064087,478.014801 845.078735,476.968445  z"
     id="path27"
     style="fill:#1282a2;fill-opacity:1" /><path
     fill="#80BDC3"
     opacity="1.000000"
     stroke="none"
     d=" M542.841309,207.121765   C535.107300,206.668335 530.542908,202.718124 530.237183,196.599747   C529.968994,191.233582 534.652222,185.228149 539.900818,184.207718   C545.659363,183.088104 551.513000,186.746414 553.434570,192.665802   C555.659729,199.520615 551.451599,205.494583 542.841309,207.121765  z"
     id="path28"
     style="fill:#1282a2;fill-opacity:1" /><path
     fill="#7EB9BD"
     opacity="1.000000"
     stroke="none"
     d=" M626.089233,323.005310   C623.823242,323.349182 621.946167,323.634369 619.940735,323.939056   C629.939819,312.548981 639.640747,301.498505 648.921631,290.926544   C652.157532,303.994690 642.196533,318.870331 626.089233,323.005310  z"
     id="path30"
     style="fill:#1282a2;fill-opacity:1" /><path
     fill="#82BEC2"
     opacity="1.000000"
     stroke="none"
     d=" M506.324890,396.309906   C502.819855,399.463104 498.769135,400.503998 495.656586,397.658264   C493.435822,395.627838 491.954803,391.816040 491.815491,388.723816   C491.635681,384.732788 494.837036,381.613617 498.736755,381.480042   C501.646027,381.380371 505.461578,382.635620 507.391785,384.683838   C510.636932,388.127411 509.459106,392.404633 506.324890,396.309906  z"
     id="path34"
     style="fill:#1282a2;fill-opacity:1" /><path
     fill="#82BEC2"
     opacity="1.000000"
     stroke="none"
     d=" M620.447876,189.602814   C622.997498,193.663635 623.314392,197.431061 620.137878,200.839523   C617.470276,203.701859 614.049683,204.246170 610.573120,202.600800   C606.868774,200.847641 605.362549,197.627686 605.830078,193.588516   C606.639526,186.593491 613.755676,184.499176 620.447876,189.602814  z"
     id="path35"
     style="fill:#1282a2;fill-opacity:1" /><path
     fill="#7EB9BD"
     opacity="1"
     stroke="none"
     d="m 402.74707,208.5614 c -0.80691,-0.22034 -1.55811,-3.39687 -0.99933,-4.94667 0.22617,-0.62724 3.22308,-0.9469 4.22952,-0.25036 0.95728,0.66245 1.6969,3.77512 1.24649,4.15983 -1.24771,1.0658 -3.2771,1.21537 -4.47668,1.0372 z"
     id="path39"
     style="fill:#1282a2;fill-opacity:1;stroke-width:1.02333"
     sodipodi:nodetypes="csssc" /></g><g
   inkscape:groupmode="layer"
   id="layer2"
   inkscape:label="Lets"><path
     fill="#B1E136"
     opacity="1.000000"
     stroke="none"
     d=" M697.741943,402.594757   C707.003662,399.722992 710.249512,400.914734 715.227173,408.726379   C725.525879,424.888672 740.390076,431.627533 758.916016,426.874817   C768.140320,424.508362 776.926880,420.077850 785.546875,415.839447   C791.273926,413.023529 792.625854,408.646729 791.404602,402.342773   C789.767761,393.893555 785.401489,386.839844 778.194763,382.493988   C769.697693,377.370026 760.679504,372.969421 751.528992,369.103119   C738.043884,363.405243 723.863342,359.256226 710.663696,353.002258   C690.765564,343.574524 675.965942,328.937469 670.125305,306.847931   C665.773132,290.387634 667.284607,274.501282 675.049622,259.259674   C692.836609,224.346207 736.249390,203.556580 773.734680,213.108932   C799.533447,219.683258 816.273743,237.035919 825.382019,261.769989   C828.015442,268.921417 826.885620,271.080627 819.447571,273.038300   C807.714355,276.126373 795.820007,278.602295 783.993469,281.335693   C780.976440,282.033112 779.574951,280.958679 778.761780,277.800354   C777.775330,273.969116 776.167175,270.227386 774.343262,266.697449   C770.829407,259.896698 765.123413,255.766632 757.499878,254.742538   C746.123413,253.214340 735.773926,256.586121 727.197327,263.656555   C719.875061,269.693054 720.925415,278.641876 723.883362,286.363953   C725.727051,291.177124 729.513123,296.191437 733.820312,298.903809   C741.053833,303.459076 749.245728,306.653503 757.307556,309.696960   C771.476929,315.046204 786.108459,319.241028 800.047729,325.104767   C808.689697,328.740112 816.946045,333.859985 824.429138,339.556641   C837.503418,349.509735 844.840393,363.351288 846.342468,379.671875   C849.551086,414.536957 840.624878,444.971344 811.458008,466.804871   C774.126709,494.750031 699.788696,499.776947 663.564209,435.292694   C658.449890,426.188416 659.065735,423.005585 668.100342,417.893341   C677.656128,412.486176 687.601746,407.768066 697.741943,402.594757  z"
     id="path2"
     style="fill:#4da167;fill-opacity:1" /><path
     fill="#B0E036"
     opacity="1.000000"
     stroke="none"
     d=" M417.117767,460.029907   C386.445587,462.572815 356.234375,465.096527 326.020996,467.594391   C317.181671,468.325165 313.786530,465.362152 313.747681,456.264435   C313.490723,396.116852 313.313263,335.968872 313.167664,275.820923   C313.152252,269.458405 315.768127,266.931061 323.356476,266.116394   C336.770874,264.676300 350.208984,263.454590 363.640991,262.181427   C393.985596,259.305176 424.333130,256.459808 454.678101,253.587402   C462.897583,252.809357 466.425232,255.420563 466.641602,263.581970   C466.919586,274.068481 466.746063,284.575958 466.445221,295.065186   C466.279724,300.835846 463.646790,303.066711 456.932587,303.701508   C434.380463,305.833771 411.820465,307.883026 389.261658,309.944244   C381.962708,310.611145 374.666595,311.365112 367.352203,311.781067   C364.244354,311.957825 362.938873,312.849457 363.017212,316.182373   C363.215912,324.634827 363.083191,333.095093 363.083191,342.327942   C372.425385,341.369904 381.130737,340.440796 389.843842,339.591614   C405.426239,338.072968 421.003998,336.495239 436.601562,335.148590   C447.548370,334.203491 450.264862,336.918793 450.199432,348.044464   C450.155334,355.542114 450.119202,363.040100 450.015930,370.537048   C449.927612,376.948364 448.063873,379.387482 441.607269,380.053436   C421.064941,382.172333 400.495941,384.033539 379.935669,385.977295   C375.458313,386.400543 370.937897,386.535736 366.516235,387.275360   C365.245270,387.487885 363.319275,389.317322 363.278503,390.461945   C362.994904,398.422455 363.128815,406.397827 363.128815,415.195526   C368.530151,414.741791 373.578400,414.375916 378.614441,413.884735   C401.326172,411.669434 424.033936,409.414001 446.744843,407.190094   C448.400574,407.027954 450.072418,406.891541 451.731995,406.933105   C456.913940,407.062836 459.862183,409.792755 459.897308,414.967743   C459.971893,425.963348 459.893494,436.961792 459.716370,447.956451   C459.634277,453.053406 456.472260,456.313141 451.405396,456.811035   C440.133942,457.918701 428.854248,458.942749 417.117767,460.029907  z"
     id="path4"
     style="fill:#4da167;fill-opacity:1" /><path
     fill="#B0E136"
     opacity="1.000000"
     stroke="none"
     d=" M639.835693,255.018890   C639.886292,262.011353 639.972900,268.507263 639.973877,275.003174   C639.975098,282.582214 637.949158,284.915131 630.574036,285.757263   C621.144897,286.833984 611.724365,288.091217 602.263611,288.736237   C598.051636,289.023407 597.111145,290.590363 597.116882,294.505829   C597.187195,342.476868 597.103394,390.448181 597.062134,438.419403   C597.052124,450.119904 594.460083,452.975098 582.712830,454.066986   C572.268005,455.037750 561.823486,456.018951 551.369141,456.877594   C543.708069,457.506866 541.083130,455.021210 541.077515,447.247406   C541.043152,399.109619 541.035583,350.971863 541.019287,302.834076   C541.018555,300.701019 541.019165,298.567993 541.019165,295.569946   C537.108521,295.878479 533.702515,296.068512 530.314575,296.428741   C518.725037,297.661041 507.147156,299.003784 495.554199,300.201508   C489.606079,300.816040 486.355713,298.048950 486.274994,292.032867   C486.131989,281.374725 486.121857,270.710510 486.317139,260.053650   C486.445831,253.032944 488.755798,250.557281 495.825775,249.799026   C529.928040,246.141510 564.041443,242.587662 598.152649,239.014252   C608.419556,237.938721 618.680664,236.778809 628.966309,235.919968   C636.389893,235.300095 639.713379,238.538040 639.885803,246.027756   C639.950928,248.857376 639.855957,251.690689 639.835693,255.018890  z"
     id="path7"
     style="fill:#4da167;fill-opacity:1" /><path
     fill="#B0DF36"
     opacity="1.000000"
     stroke="none"
     d=" M227.047958,368.000000   C227.048035,387.467133 227.048035,406.434296 227.048035,426.132446   C235.776382,425.269012 244.127075,424.428162 252.480957,423.620270   C262.924896,422.610229 273.363129,421.525543 283.819763,420.667938   C290.905579,420.086823 294.277100,422.828094 294.425903,430.020355   C294.649750,440.839661 294.434906,451.678162 294.049042,462.495758   C293.852478,468.005463 290.746368,470.236084 283.608429,470.854950   C268.839478,472.135498 254.068832,473.399200 239.292847,474.595367   C220.697754,476.100708 202.100983,477.590271 183.496109,478.967499   C175.295395,479.574585 171.960571,476.320923 171.973724,467.934235   C172.064316,410.119507 172.177124,352.304840 172.310028,294.490234   C172.328384,286.507080 174.831131,283.651672 182.664413,282.724213   C193.414612,281.451355 204.174118,280.249451 214.941620,279.132690   C224.412231,278.150421 227.064377,280.569519 227.067810,290.024414   C227.077164,315.849609 227.056595,341.674805 227.047958,368.000000  z"
     id="path9"
     style="fill:#4da167;fill-opacity:1" /></g><g
   inkscape:groupmode="layer"
   id="layer3"
   inkscape:label="Be"><path
     fill="#F7F7F7"
     opacity="1.000000"
     stroke="none"
     d=" M477.203430,508.129211   C475.024963,512.639893 471.399017,514.657410 467.050629,514.890869   C461.107056,515.209839 455.133484,514.970459 448.814697,514.970459   C448.814697,502.360016 448.814697,489.814972 448.814697,476.206818   C455.559265,476.557526 462.424042,476.129822 468.927734,477.463135   C476.095978,478.932648 477.228699,486.188507 471.943115,493.604218   C477.509796,496.848969 479.708344,501.492798 477.203430,508.129211  M461.693085,506.576050   C463.608521,505.473328 465.523987,504.370575 467.439453,503.267853   C466.571014,501.861359 465.966156,499.633972 464.769501,499.249695   C463.159760,498.732849 461.093475,499.637787 459.223145,499.932465   C459.793762,502.062012 460.364410,504.191589 461.693085,506.576050  M458.858582,489.434174   C460.851410,489.708923 462.843872,490.085632 464.837738,490.093689   C465.027863,490.094482 465.818420,487.286194 465.291595,486.669952   C464.372162,485.594513 462.344940,484.385925 461.334564,484.753235   C460.181000,485.172516 459.631134,487.252655 458.858582,489.434174  z"
     id="path22"
     style="fill:#f1f7ed;fill-opacity:1" /><path
     fill="#F4F4F4"
     opacity="1.000000"
     stroke="none"
     d=" M512.380493,514.905518   C504.944946,514.930969 497.956696,514.933594 490.968506,514.919861   C490.646149,514.919250 490.324066,514.772278 489.669373,514.612122   C489.669373,501.986938 489.669373,489.284882 489.669373,476.305878   C497.810181,476.305878 505.543823,476.305878 513.802551,476.305878   C513.943604,479.356201 514.077515,482.252869 514.232422,485.602570   C509.149170,485.602570 504.414093,485.602570 499.716461,485.602570   C498.115723,489.463989 499.267426,490.858643 502.963928,490.630402   C505.428467,490.478210 507.910004,490.601532 510.683929,490.601532   C510.683929,493.641235 510.683929,496.190887 510.683929,499.119873   C506.964569,499.119873 503.510071,499.119873 499.522705,499.119873   C499.427582,501.184235 499.348663,502.897705 499.249939,505.040222   C504.223297,505.040222 508.834839,505.040222 514.811279,505.040222   C514.068665,508.724182 513.448242,511.801819 512.380493,514.905518  z"
     id="path23"
     style="fill:#f1f7ed;fill-opacity:1" /></g><g
   inkscape:groupmode="layer"
   id="layer4"
   inkscape:label="Risky"><path
     fill="#FCFDFC"
     opacity="1.000000"
     stroke="none"
     d=" M172.354095,671.999878   C172.570084,642.843506 172.854416,614.187195 172.908798,585.530457   C172.915527,581.991638 174.106628,580.278809 177.195496,578.730408   C199.640991,567.478577 223.242691,560.305054 248.320007,558.478088   C262.575989,557.439453 276.655853,558.585999 289.950958,564.457520   C313.248840,574.746460 324.137512,598.103577 318.671112,625.083923   C315.314667,641.650024 306.024170,654.252991 293.084290,664.391907   C289.525330,667.180420 289.083344,669.344421 290.834564,673.441711   C302.283173,700.227295 313.431366,727.141357 324.672638,754.015564   C325.122192,755.090271 325.537537,756.180115 325.940521,757.273376   C329.461884,766.826660 329.284698,768.313660 320.404724,773.427368   C311.193970,778.731506 301.647583,783.498840 292.022247,788.020447   C285.759460,790.962463 283.439087,789.869690 281.055389,783.251343   C276.769531,771.351685 272.870148,759.312927 268.794830,747.337280   C262.043549,727.498169 255.280792,707.662964 248.286362,687.131958   C239.934052,688.923889 231.830719,690.502136 223.854370,692.570190   C222.821289,692.838074 221.847122,695.639038 221.853836,697.262512   C221.941208,718.421692 222.228668,739.580017 222.426193,760.738892   C222.516403,770.401489 222.590073,780.065308 222.539810,789.727844   C222.500534,797.276184 222.142380,798.322815 214.657654,800.226501   C203.390381,803.092407 191.966629,805.421021 180.517609,807.463379   C174.329468,808.567261 172.794800,806.805237 172.772095,800.458374   C172.619568,757.805542 172.489609,715.152710 172.354095,671.999878  M251.913147,642.493347   C255.417618,640.277222 259.397430,638.558594 262.336212,635.750488   C270.683960,627.774109 272.825226,617.603333 269.797577,606.815735   C267.096191,597.190552 258.661774,594.161621 249.871414,593.817017   C241.315186,593.481567 232.693558,594.728149 224.105255,595.344482   C221.064102,595.562683 220.688980,597.487854 220.723022,600.216370   C220.910095,615.204834 220.881836,630.195984 220.926178,645.186218   C220.930801,646.746521 220.926804,648.306763 220.926804,651.275269   C231.775345,648.252380 241.503891,645.541626 251.913147,642.493347  z"
     id="path3"
     style="fill:#d52941;fill-opacity:1" /><path
     fill="#FDFCFC"
     opacity="1.000000"
     stroke="none"
     d=" M695.655212,557.701599   C695.013794,560.819275 695.086975,564.331360 693.618347,566.992432   C681.549011,588.861450 669.269104,610.615906 656.839661,632.282715   C655.039612,635.420593 654.818909,637.521973 656.901978,640.696472   C675.817688,669.522583 694.544495,698.472839 713.270081,727.423340   C717.351135,733.732849 717.592224,734.367737 711.343323,738.693970   C701.512756,745.499939 691.328369,751.848816 680.947571,757.785889   C674.547852,761.446106 671.958252,760.323303 667.956848,753.664551   C651.830139,726.827881 635.797180,699.934875 619.716980,673.070190   C618.819641,671.571167 617.809204,670.139893 616.069519,667.482849   C616.069519,671.278137 616.029541,673.692139 616.075684,676.104492   C616.573120,702.092346 617.014954,728.081726 617.688965,754.065125   C617.763733,756.948181 616.889282,758.204346 614.430786,759.278931   C601.756470,764.818604 588.410156,767.451965 574.726440,768.524353   C570.023926,768.892822 568.117249,766.859863 568.088379,762.269775   C567.631470,689.620911 567.214539,616.971741 566.661072,544.323608   C566.632690,540.602417 567.831604,538.391357 571.149658,536.978516   C583.438721,531.745850 596.425415,529.908936 609.600769,529.071106   C613.985352,528.792236 614.508423,531.742493 614.556091,535.342407   C614.900818,561.334045 615.375061,587.324036 615.802185,613.314575   C615.829407,614.972351 615.805786,616.630920 616.793030,618.778564   C617.628052,617.373840 618.541626,616.009338 619.286377,614.558350   C630.995056,591.744202 642.692322,568.924316 654.369202,546.093872   C659.519043,536.024963 661.900818,535.075928 671.595337,541.236328   C679.711304,546.393677 687.308350,552.367676 695.429443,557.864258   C695.723755,557.748352 695.655212,557.701599 695.655212,557.701599  z"
     id="path5"
     style="fill:#d52941;fill-opacity:1" /><path
     fill="#FCFDFC"
     opacity="1.000000"
     stroke="none"
     d=" M508.830963,547.114563   C525.509766,555.106750 536.354675,567.822205 542.257446,584.815857   C545.042725,592.834351 543.902588,595.496338 536.006165,597.978149   C527.127930,600.768616 518.058655,602.947510 509.091003,605.458313   C505.187134,606.551331 503.217957,605.471069 501.803497,601.325500   C495.636505,583.250732 481.187927,577.273926 463.740601,585.186218   C449.421997,591.679504 446.772095,608.382385 459.008301,618.386536   C464.053223,622.511230 470.264862,625.506775 476.366364,627.977173   C487.925293,632.657349 500.065369,635.966064 511.430511,641.039551   C519.530579,644.655518 527.537659,649.325562 534.215881,655.107910   C548.994263,667.903687 551.946472,684.968079 550.016785,703.769653   C543.203918,770.150513 470.556885,788.927246 428.542908,763.996399   C413.903503,755.309509 403.406952,742.857361 395.850586,727.810852   C393.135925,722.405334 394.074890,718.848328 399.235107,716.033020   C407.264252,711.652344 415.398468,707.406128 423.750092,703.691895   C431.359375,700.307922 435.176147,701.647766 440.257538,708.138672   C441.386292,709.580627 442.425171,711.092651 443.517456,712.563477   C453.837555,726.460510 465.641846,730.553528 482.040894,724.915222   C488.073456,722.841064 493.732605,719.347717 499.120789,715.826477   C504.432159,712.355347 505.546783,707.415405 503.321899,701.291748   C500.621429,693.859070 495.312683,688.471069 488.421295,685.161499   C480.348694,681.284729 471.771820,678.473267 463.520325,674.949890   C452.984406,670.450989 441.943481,666.721069 432.195404,660.868835   C403.847504,643.850220 395.843140,612.385376 411.561279,583.343872   C427.460022,553.968750 467.584320,535.966370 499.500061,543.959229   C502.552979,544.723755 505.488159,545.958374 508.830963,547.114563  z"
     id="path6"
     style="fill:#d52941;fill-opacity:1" /><path
     fill="#FCFCFC"
     opacity="1.000000"
     stroke="none"
     d=" M695.752808,557.778015   C692.000122,549.772522 697.674561,546.203064 703.196838,543.130615   C712.916809,537.722595 722.866211,532.719543 732.803589,527.713745   C736.658875,525.771729 738.850464,527.056274 740.473999,531.374695   C750.259583,557.401978 760.360168,583.310913 770.371521,609.253174   C770.955444,610.766235 771.680054,612.224976 772.852478,614.864685   C774.231506,611.941772 775.348694,610.021912 776.076172,607.964294   C786.178467,579.391907 796.238770,550.804626 806.284241,522.212097   C811.083679,508.551270 811.700684,508.027893 826.030518,511.157349   C832.843994,512.645264 839.565735,514.694824 846.173828,516.945435   C854.020691,519.617981 854.616272,520.980286 851.629211,528.637085   C845.638367,543.993469 839.554626,559.315552 833.320618,574.574707   C822.110962,602.012756 810.788513,629.404785 799.449463,656.789734   C797.192444,662.240662 796.193542,667.661133 796.331665,673.713440   C796.810791,694.702209 796.503845,715.707764 796.695923,736.705139   C796.741943,741.742065 794.509033,744.855286 789.892090,745.725464   C777.135437,748.129822 764.322571,750.250916 751.490417,752.212524   C750.433167,752.374023 748.353149,750.698242 747.983948,749.496460   C747.219177,747.007507 747.050720,744.263245 747.048218,741.623474   C747.025330,717.959656 747.110901,694.295837 747.089600,670.632019   C747.088196,669.021851 746.778442,667.276306 746.112854,665.822266   C729.617188,629.790710 713.054260,593.789978 696.079224,557.742676   C695.655212,557.701599 695.723755,557.748352 695.752808,557.778015  z"
     id="path8"
     style="fill:#d52941;fill-opacity:1" /><path
     fill="#FCFCFC"
     opacity="1.000000"
     stroke="none"
     d=" M337.713318,654.000000   C337.709625,644.838074 337.897339,636.170227 337.624146,627.516907   C337.492249,623.339600 339.264740,620.422302 342.807281,619.362000   C354.094696,615.983337 365.443329,612.723450 376.929779,610.133667   C382.226135,608.939575 383.119598,610.415466 383.222717,616.074402   C384.121002,665.369690 385.026062,714.664856 385.937500,763.959900   C386.051575,770.128418 384.799133,772.404480 378.754517,774.002930   C368.304199,776.766541 357.759583,779.200073 347.192902,781.487549   C340.723053,782.888245 338.263794,780.638306 338.233154,773.932678   C338.051056,734.121765 337.885956,694.310913 337.713318,654.000000  z"
     id="path10"
     style="fill:#d52941;fill-opacity:1" /><path
     fill="#FBFBFB"
     opacity="1.000000"
     stroke="none"
     d=" M361.993469,541.894043   C377.663483,542.746277 388.476990,554.115234 388.021088,568.780212   C387.589722,582.656738 374.970764,594.676208 360.760651,594.745605   C347.528931,594.810242 335.364410,582.724121 335.050995,569.201721   C334.706085,554.320374 346.098480,542.574524 361.993469,541.894043  z"
     id="path16"
     style="fill:#d52941;fill-opacity:1" /></g><g
   inkscape:groupmode="layer"
   id="layer5"
   inkscape:label="Secondary Strokes"><path
     fill="#DB3951"
     opacity="1.000000"
     stroke="none"
     d=" M844.012451,703.640564   C851.833130,707.023804 856.183289,713.237244 855.568726,719.725342   C854.978149,725.959778 849.881653,731.633179 843.718018,732.917419   C836.168457,734.490540 829.674255,731.651123 825.847412,725.207092   C822.595703,719.731445 823.967773,714.526184 827.125671,709.767639   C831.021729,703.896790 836.739319,701.936035 844.012451,703.640564  z"
     id="path24"
     style="fill:#f1f7ed;fill-opacity:0.25490198" /><path
     fill="#DC3A56"
     opacity="1.000000"
     stroke="none"
     d=" M845.924438,643.092468   C848.149414,648.518127 850.155518,653.634644 852.328064,658.679382   C853.905151,662.341736 852.996582,664.457642 848.924500,664.921021   C844.133972,665.466187 839.350586,666.170532 834.543579,666.437866   C831.515076,666.606201 828.736755,665.092957 830.058044,661.660339   C833.215149,653.458557 836.937622,645.473755 840.481323,637.423157   C840.639160,637.064758 841.284729,636.921021 842.241882,636.363525   C843.444031,638.536316 844.610413,640.644470 845.924438,643.092468  z"
     id="path29"
     style="fill:#f1f7ed;fill-opacity:0.25490198" /><path
     fill="#D83A53"
     opacity="1.000000"
     stroke="none"
     d=" M441.084351,159.877792   C447.444061,156.739746 452.446198,157.832428 455.219696,162.658005   C457.627777,166.847763 456.798523,171.816528 453.188477,174.829330   C449.664215,177.770477 443.954559,177.614655 440.315460,174.478012   C436.705750,171.366669 436.074341,166.530365 438.799469,162.340027   C439.334167,161.517853 440.114441,160.855362 441.084351,159.877792  z"
     id="path31"
     style="fill:#f1f7ed;fill-opacity:0.25490198" /><path
     fill="#D23D56"
     opacity="1.000000"
     stroke="none"
     d=" M597.752930,830.573425   C593.346558,828.831360 590.457092,826.306885 590.996704,821.511047   C591.446594,817.512573 593.681091,814.702087 597.556885,813.539490   C601.774597,812.274414 605.555237,813.884216 607.438660,817.418579   C608.721069,819.825134 609.020447,823.583435 608.105408,826.146851   C606.579407,830.421753 602.505798,831.434326 597.752930,830.573425  z"
     id="path32"
     style="fill:#f1f7ed;fill-opacity:0.25490198" /><path
     fill="#D63953"
     opacity="1.000000"
     stroke="none"
     d=" M180.095764,842.024536   C184.900909,840.724792 188.860153,842.098267 190.548294,846.102417   C191.671539,848.766663 191.615051,852.725525 190.440353,855.375000   C188.669571,859.368774 184.135559,860.065063 180.463867,858.667419   C177.901215,857.691956 174.959305,855.071228 174.199921,852.573364   C172.802414,847.976501 175.208344,844.208435 180.095764,842.024536  z"
     id="path33"
     style="fill:#f1f7ed;fill-opacity:0.25490198" /><path
     fill="#D23D56"
     opacity="1.000000"
     stroke="none"
     d=" M508.272034,337.299927   C502.405640,339.157684 498.400299,337.416595 496.811310,332.634186   C495.509094,328.714966 497.800079,324.083740 501.807678,322.533661   C505.681885,321.035217 510.275238,323.088348 511.936523,327.308594   C513.552979,331.414948 512.252258,334.717926 508.272034,337.299927  z"
     id="path36"
     style="fill:#f1f7ed;fill-opacity:0.25490198" /><path
     fill="#D63953"
     opacity="1"
     stroke="none"
     d="m 381.21204,852.36725 c 3.35895,0.97489 4.69626,3.88224 4.63647,6.14443 -0.0474,1.79193 -1.70644,4.59982 -3.28106,4.99631 -2.03757,0.51306 -5.70982,0.0408 -7.20222,-1.31075 -1.26166,-1.14264 -1.65213,-4.39066 -1.13244,-6.29313 0.82174,-3.00824 3.37488,-4.49713 6.97925,-3.53686 z"
     id="path37"
     style="fill:#f1f7ed;fill-opacity:0.25490198"
     sodipodi:nodetypes="cssssc" /><path
     fill="#DC3A56"
     opacity="1"
     stroke="none"
     d="m 273.45223,369.30121 c -0.56317,1.95739 -0.64934,2.08288 -2.02548,3.12315 -1.94234,0.87063 -4.73528,0.56215 -6.13155,-0.68545 -1.39434,-1.24587 -1.25281,-3.7426 -0.7034,-4.68401 0.68835,-1.17938 1.76034,-2.61193 3.7381,-2.65611 3.2861,0.36751 4.77176,1.3826 5.12233,4.90242 z"
     id="path38"
     style="fill:#f1f7ed;fill-opacity:0.25490198"
     sodipodi:nodetypes="ccsscc" /><path
     fill="#D23D56"
     opacity="1.000000"
     stroke="none"
     d=" M311.792175,847.976562   C310.357605,846.713928 308.337280,845.284485 308.492737,844.154358   C308.671417,842.854858 310.622711,841.415344 312.112183,840.853821   C312.782654,840.601013 315.240479,842.701660 315.099670,843.095764   C314.477264,844.837952 313.204956,846.347961 311.792175,847.976562  z"
     id="path40"
     style="fill:#f1f7ed;fill-opacity:0.25490198" /></g><g
   inkscape:groupmode="layer"
   id="layer6"
   inkscape:label="Background"><path
     fill="#353447"
     opacity="1"
     stroke="none"
     d="M 600,1025 H 1 V 1 H 1025 V 1025 H 600 M 820.93591,216.29817 c 0.14423,-0.0312 0.28839,-0.0624 0.43262,-0.0936 -0.12994,-0.0627 -0.25989,-0.12544 -0.41492,-0.87883 -7.1217,-6.69949 -13.62457,-14.25208 -21.47491,-19.9473 -30.17255,-21.88934 -71.41583,-20.50116 -98.30261,2.64318 -6.0907,5.24293 -10.66816,11.57095 -13.81397,18.97757 1.33588,-0.48413 2.3205,-1.26346 3.26117,-2.09273 21.09845,-18.59937 45.49957,-27.08374 73.65765,-24.04894 18.14319,1.95542 33.5329,10.34594 48.20081,20.51087 2.6449,1.83291 5.69885,3.0755 8.45416,4.92976 M 695.13513,557.9801 c -7.82678,-5.61242 -15.42383,-11.58642 -23.53979,-16.74377 -9.69452,-6.1604 -12.0763,-5.21137 -17.22614,4.85754 -11.67688,22.83045 -23.37414,45.65033 -35.08282,68.46448 -0.74475,1.45099 -1.65833,2.81549 -2.49335,4.22021 -0.98724,-2.14764 -0.96362,-3.80621 -0.99085,-5.46399 -0.42712,-25.99053 -0.90136,-51.98053 -1.24609,-77.97216 -0.0477,-3.59992 -0.57074,-6.55017 -4.95532,-6.2713 -13.17535,0.83783 -26.16205,2.67474 -38.45111,7.90741 -3.31806,1.41284 -4.51697,3.6239 -4.48859,7.34509 0.55347,72.64813 0.9704,145.2973 1.42731,217.94616 0.0289,4.59009 1.93555,6.62305 6.63806,6.25458 13.68372,-1.07239 27.03003,-3.70575 39.70435,-9.24542 2.45849,-1.07458 3.33294,-2.33075 3.25818,-5.21381 -0.67402,-25.98339 -1.11585,-51.97277 -1.61329,-77.96063 -0.0461,-2.41235 -0.006,-4.82635 -0.006,-8.62164 1.73968,2.65704 2.75012,4.08832 3.64746,5.58734 16.0802,26.86469 32.11316,53.75769 48.23987,80.59436 4.0014,6.65875 6.591,7.78156 12.99072,4.12134 10.3808,-5.93707 20.56519,-12.28595 30.39575,-19.09192 6.2489,-4.32623 6.00781,-4.96112 1.92676,-11.27063 -18.72559,-28.9505 -37.45239,-57.90076 -56.3681,-86.72687 -2.08307,-3.1745 -1.86237,-5.27588 -0.0623,-8.41375 12.42944,-21.66681 24.70935,-43.42127 36.77869,-65.29029 1.46863,-2.66107 1.39544,-6.17316 2.88489,-9.20868 16.55102,36.00623 33.11395,72.00696 49.60961,108.03852 0.66559,1.45404 0.97535,3.19958 0.97675,4.80975 0.0213,23.66382 -0.0643,47.32764 -0.0414,70.99145 0.002,2.63977 0.17096,5.38404 0.93573,7.87299 0.3692,1.20178 2.44922,2.87756 3.50647,2.71606 12.83215,-1.9616 25.64502,-4.0827 38.40167,-6.48706 4.61694,-0.87017 6.84985,-3.98339 6.80383,-9.02032 -0.19208,-20.99738 0.11487,-42.00293 -0.36425,-62.9917 -0.13813,-6.05231 0.86077,-11.47278 3.11779,-16.92371 11.33905,-27.38495 22.6615,-54.77697 33.87116,-82.21502 6.23401,-15.25916 12.31775,-30.58124 18.30859,-45.93763 2.98706,-7.65679 2.39148,-9.0191 -5.45538,-11.69165 -6.60809,-2.25061 -13.32984,-4.30017 -20.14331,-5.78808 -14.32984,-3.12946 -14.94684,-2.60608 -19.74628,11.05475 -10.04547,28.59253 -20.10577,57.17981 -30.20807,85.75219 -0.72748,2.05762 -1.84466,3.97748 -3.22369,6.90039 -1.17243,-2.6397 -1.89704,-4.09844 -2.48096,-5.61151 -10.01135,-25.94226 -20.11194,-51.85119 -29.89752,-77.87848 -1.62354,-4.31842 -3.81513,-5.60296 -7.67041,-3.66094 -9.93738,5.00579 -19.88678,10.00884 -29.60675,15.41687 -5.52228,3.07244 -11.19672,6.6419 -8.06171,14.84948 m 2.24194,-155.23111 c -9.77532,5.01908 -19.72094,9.73719 -29.27673,15.14435 -9.0346,5.11224 -9.65045,8.29508 -4.53613,17.39935 36.22449,64.48426 110.5625,59.45734 147.8938,31.51218 29.16687,-21.83353 38.09308,-52.26791 34.88446,-87.133 -1.50208,-16.32058 -8.83905,-30.16214 -21.91333,-40.11523 -7.48309,-5.69666 -15.73944,-10.81653 -24.38141,-14.45187 -13.93927,-5.86374 -28.5708,-10.05857 -42.74017,-15.40781 -8.06183,-3.04346 -16.25373,-6.23788 -23.48725,-10.79315 -4.30719,-2.71237 -8.09326,-7.72669 -9.93695,-12.53986 -2.95794,-7.72207 -4.0083,-16.6709 3.31397,-22.70739 8.5766,-7.07044 18.92608,-10.44222 30.30255,-8.91402 7.62353,1.02409 13.32953,5.15416 16.84338,11.95491 1.82392,3.52994 3.43207,7.27167 4.41852,11.1029 0.81317,3.15833 2.21466,4.23276 5.23169,3.53534 11.82654,-2.73339 23.72088,-5.20932 35.4541,-8.29739 7.43805,-1.95767 8.56787,-4.11688 5.93445,-11.26831 -9.10828,-24.73407 -25.84857,-42.08673 -51.64734,-48.66106 -37.48529,-9.55235 -80.89807,11.23728 -98.68506,46.15074 -7.76501,15.24161 -9.27649,31.12796 -4.92431,47.58826 5.84063,22.08954 20.64025,36.72659 40.53839,46.15433 13.19964,6.25397 27.38018,10.40298 40.86529,16.10086 9.15051,3.8663 18.1687,8.26691 26.66577,13.39087 7.20673,4.34585 11.573,11.39956 13.20984,19.84878 1.22125,6.30396 -0.13067,10.68076 -5.85773,13.49668 -8.61999,4.2384 -17.40655,8.66891 -26.63085,11.03537 -18.52594,4.75271 -33.39014,-1.98615 -43.68885,-18.14844 -4.97766,-7.81165 -8.22351,-9.00339 -17.8501,-5.97739 M 172.35232,672.49988 c 0.13729,42.65283 0.26725,85.30566 0.41977,127.95849 0.0227,6.34687 1.55738,8.10889 7.74552,7.00501 11.44902,-2.04236 22.87277,-4.37097 34.14004,-7.23688 7.48473,-1.90369 7.84288,-2.95032 7.88216,-10.49866 0.0503,-9.66253 -0.0234,-19.32635 -0.11362,-28.98895 -0.19752,-21.15887 -0.48498,-42.3172 -0.57235,-63.47638 -0.007,-1.62347 0.96745,-4.42444 2.00053,-4.69232 7.97635,-2.06805 16.07968,-3.6463 24.43199,-5.43823 6.99443,20.531 13.75719,40.36621 20.50847,60.20532 4.07532,11.97565 7.9747,24.0144 12.26056,35.91406 2.3837,6.61835 4.70407,7.71112 10.96686,4.76911 9.62533,-4.52161 19.17172,-9.28894 28.38247,-14.59308 8.87998,-5.11371 9.05716,-6.60071 5.5358,-16.15399 -0.40298,-1.09327 -0.81833,-2.18311 -1.26788,-3.25782 -11.24127,-26.8742 -22.38947,-53.78826 -33.83808,-80.57385 -1.75122,-4.09729 -1.30923,-6.26129 2.24973,-9.0498 12.93988,-10.13892 22.23038,-22.74189 25.58682,-39.30799 5.4664,-26.98034 -5.42227,-50.33746 -28.72015,-60.6264 -13.29511,-5.87152 -27.37497,-7.01807 -41.63095,-5.97943 -25.07732,1.82696 -48.67902,9.00049 -71.12451,20.25232 -3.08887,1.5484 -4.27997,3.26123 -4.2867,6.80005 -0.0544,28.65673 -0.33872,57.31305 -0.55648,86.96942 m 245.22559,-212.499 c 11.27634,-1.05813 22.55603,-2.08218 33.82749,-3.18985 5.06686,-0.49789 8.22888,-3.75762 8.31097,-8.85458 0.17712,-10.99466 0.25552,-21.9931 0.18094,-32.98871 -0.0351,-5.17499 -2.98337,-7.9049 -8.16532,-8.03464 -1.65957,-0.0416 -3.33142,0.0948 -4.98715,0.25699 -22.7109,2.22391 -45.41867,4.47934 -68.1304,6.69464 -5.03604,0.49119 -10.08429,0.85706 -15.48563,1.3108 0,-8.7977 -0.13391,-16.77307 0.14969,-24.73358 0.0408,-1.14463 1.96677,-2.97407 3.23773,-3.18659 4.42167,-0.73962 8.94208,-0.87482 13.41944,-1.29806 20.56027,-1.94376 41.12927,-3.80497 61.6716,-5.92386 6.4566,-0.66596 8.32034,-3.10508 8.40866,-9.51639 0.10327,-7.49695 0.1394,-14.99494 0.1835,-22.49259 0.0654,-11.12567 -2.65106,-13.84097 -13.59787,-12.89587 -15.59756,1.34665 -31.17532,2.92438 -46.75772,4.44302 -8.7131,0.84919 -17.41846,1.77829 -26.76065,2.73633 0,-9.23285 0.13272,-17.69311 -0.066,-26.14557 -0.0783,-3.33291 1.22714,-4.22454 4.33499,-4.4013 7.31439,-0.41596 14.61051,-1.16992 21.90946,-1.83683 22.55881,-2.06121 45.1188,-4.11047 67.67093,-6.24273 6.7142,-0.6348 9.34713,-2.86566 9.51263,-8.63632 0.30084,-10.48923 0.47437,-20.99671 0.19638,-31.48322 -0.21637,-8.16141 -3.74402,-10.77261 -11.9635,-9.99457 -30.34497,2.87241 -60.6925,5.71778 -91.03711,8.59403 -13.43201,1.27316 -26.87012,2.49487 -40.28451,3.93496 -7.58835,0.81467 -10.20423,3.34202 -10.18882,9.70453 0.1456,60.14795 0.32306,120.29593 0.58002,180.44351 0.0389,9.09772 3.43399,12.06074 12.27332,11.32996 30.21337,-2.49786 60.42459,-5.02158 91.55691,-7.59351 m 90.90012,86.97385 c -2.98987,-1.01636 -5.92505,-2.25098 -8.97797,-3.0155 -31.91574,-7.99286 -72.04004,10.00952 -87.93878,39.38464 -15.71814,29.04151 -7.71378,60.50635 20.63412,77.52496 9.74808,5.85224 20.78901,9.58216 31.32493,14.08106 8.25149,3.52338 16.82836,6.33484 24.90096,10.21161 6.89139,3.30957 12.20014,8.69757 14.90061,16.13025 2.22488,6.12365 1.11026,11.0636 -4.20111,14.53473 -5.38819,3.52124 -11.04733,7.01458 -17.0799,9.08874 -16.39904,5.63831 -28.20334,1.54529 -38.52343,-12.35174 -1.09229,-1.47083 -2.13117,-2.98285 -3.25992,-4.42481 -5.08139,-6.4909 -8.89817,-7.83075 -16.50745,-4.44677 -8.35162,3.71423 -16.48584,7.96044 -24.51498,12.34112 -5.16022,2.81531 -6.09919,6.37231 -3.38452,11.77783 7.55636,15.04651 18.05291,27.49866 32.69232,36.18555 42.01398,24.93085 114.66101,6.15411 121.47388,-60.22675 1.92968,-18.80157 -1.02253,-35.86596 -15.80091,-48.66174 -6.67822,-5.78235 -14.6853,-10.45239 -22.78537,-14.06836 -11.36514,-5.07349 -23.50522,-8.3822 -35.06415,-13.06238 -6.1015,-2.4704 -12.31314,-5.46594 -17.35806,-9.59063 -12.23621,-10.00416 -9.5863,-26.70704 4.7323,-33.20032 17.44733,-7.91229 31.8959,-1.93549 38.0629,16.13928 1.41446,4.14557 3.38363,5.22583 7.2875,4.13281 8.96766,-2.5108 18.03693,-4.68969 26.91516,-7.48016 7.89643,-2.48181 9.03657,-5.1438 6.25129,-13.16229 -5.90277,-16.99365 -16.74768,-29.70911 -33.77942,-37.84113 M 639.83392,254.52231 c 0.022,-2.83162 0.11701,-5.66493 0.0519,-8.49455 -0.17242,-7.48972 -3.49591,-10.72767 -10.91949,-10.10779 -10.28565,0.85884 -20.54675,2.01875 -30.81366,3.09428 -34.11121,3.57341 -68.22461,7.12726 -102.32687,10.78478 -7.06998,0.75825 -9.37995,3.23391 -9.50864,10.25462 -0.19528,10.65686 -0.18515,21.32107 -0.0421,31.97922 0.0807,6.01608 3.33109,8.78317 9.27921,8.16864 11.59296,-1.19773 23.17084,-2.54047 34.76037,-3.77277 3.38794,-0.36023 6.79395,-0.55026 10.7046,-0.85879 0,2.99804 -6.2e-4,5.13107 1.2e-4,7.26413 0.0163,48.13778 0.0239,96.27554 0.0582,144.41333 0.006,7.7738 2.63056,10.25946 10.29163,9.63018 10.45435,-0.85864 20.89887,-1.83984 31.34369,-2.8106 11.74725,-1.09189 14.33929,-3.94709 14.3493,-15.64759 0.0413,-47.97122 0.12506,-95.94253 0.0548,-143.91357 -0.006,-3.91547 0.93476,-5.48242 5.14673,-5.76959 9.46076,-0.64502 18.88129,-1.90226 28.31043,-2.97898 7.37512,-0.84213 9.40106,-3.17505 9.39984,-10.75409 -9.8e-4,-6.49591 -0.0876,-12.99182 -0.13996,-20.48086 M 227.04788,367.5 c 0.009,-25.8252 0.0293,-51.65039 0.0199,-77.47559 -0.003,-9.45489 -2.65558,-11.87399 -12.12619,-10.89172 -10.7675,1.11676 -21.52701,2.31866 -32.27721,3.59152 -7.83328,0.92746 -10.33603,3.78287 -10.35438,11.76602 -0.13291,57.81461 -0.24571,115.62928 -0.33631,173.444 -0.0131,8.38669 3.32168,11.64036 11.52239,11.03327 18.60487,-1.37723 37.20164,-2.86679 55.79674,-4.37213 14.77598,-1.19617 29.54663,-2.45987 44.31558,-3.74042 7.13794,-0.61887 10.24405,-2.84949 10.44061,-8.35919 0.38587,-10.8176 0.60071,-21.6561 0.37686,-32.47541 -0.1488,-7.19226 -3.52032,-9.93353 -10.60614,-9.35241 -10.45663,0.8576 -20.89486,1.94229 -31.3388,2.95233 -8.35389,0.80789 -16.70458,1.64874 -25.43293,2.51218 0,-19.69815 0,-38.66532 -1.5e-4,-58.63245 m 110.66727,287 c 0.17081,39.81091 0.33591,79.62176 0.518,119.43268 0.0306,6.70563 2.4899,8.95556 8.95975,7.55487 10.56668,-2.28748 21.1113,-4.72101 31.56162,-7.48462 6.04461,-1.59845 7.29706,-3.87451 7.18298,-10.04303 -0.91144,-49.29504 -1.8165,-98.59021 -2.71478,-147.8855 -0.10312,-5.65893 -0.99659,-7.13483 -6.29294,-5.94073 -11.48645,2.58978 -22.83508,5.84967 -34.1225,9.22833 -3.54254,1.0603 -5.31503,3.9776 -5.18313,8.15491 0.27319,8.65332 0.0855,17.32116 0.091,26.98309 M 798.52399,161.01797 c -10.55335,-5.6379 -21.82068,-9.22915 -33.66419,-10.46365 -34.90869,-3.63866 -65.16174,4.92514 -86.80426,34.58872 -11.50323,15.76654 -18.34485,33.55592 -21.04431,52.82438 -1.06134,7.57494 -1.03442,15.30231 -1.50311,22.96028 0.63696,0.10447 1.27398,0.20893 1.91095,0.31342 0.69439,-2.27194 1.33777,-4.56101 2.09173,-6.81299 3.85028,-11.49957 6.805,-23.40607 11.76294,-34.40868 18.48261,-41.01641 55.42542,-60.73902 98.01837,-52.98686 17.81061,3.24164 33.57105,11.59668 49.14661,20.32483 3.94879,2.21279 7.90283,4.41632 11.85443,6.6241 -6.22625,-15.14506 -17.7265,-24.80961 -31.76916,-32.96355 M 450.48428,823.23486 c -35.88119,1.54242 -69.18597,-8.08886 -101.26782,-23.86731 0.83478,2.54608 1.9678,4.30884 3.37888,5.81018 10.49435,11.16529 23.61136,18.3747 37.53546,24.13269 42.95178,17.76166 85.27691,17.49451 126.46069,-5.42498 13.36127,-7.43567 25.15625,-16.89899 33.61939,-29.94647 1.06024,-1.63453 1.79272,-3.48163 2.67706,-5.23029 -30.41254,22.52679 -64.21665,33.41687 -102.40366,34.52618 M 266.34909,303.09769 c 1.64059,3.21963 3.28119,6.43924 5.44003,10.67593 0.50125,-1.84827 0.69318,-2.17523 0.65369,-2.47131 -0.28601,-2.14432 -0.58905,-4.28733 -0.94135,-6.4217 -3.54403,-21.47167 -4.88363,-42.96517 -1.56738,-64.63426 5.74643,-37.54832 25.73145,-58.55324 62.96848,-65.67296 17.30591,-3.30886 34.78531,-3.11074 52.28338,-2.35363 1.50071,0.0649 3.00666,0.009 4.51013,0.009 0.12998,-0.52408 0.25995,-1.04814 0.38993,-1.57222 -3.24619,-1.47144 -6.36029,-3.65431 -9.76239,-4.28569 -11.91306,-2.21094 -23.87369,-5.00759 -35.90939,-5.56275 -41.48588,-1.9136 -74.27924,22.97475 -83.53339,63.38535 -6.04802,26.41023 -4.0007,52.61821 5.46826,78.90465 M 844.245,783.66608 c -13.39148,26.54986 -33.23884,45.91125 -61.68506,55.92505 -22.65589,7.97546 -45.92853,9.19427 -69.56141,6.95666 -7.14611,-0.67663 -14.26477,-1.64313 -21.39599,-2.47687 -0.13007,0.40863 -0.26007,0.81726 -0.39008,1.22589 3.06061,1.47211 5.97858,3.58051 9.20697,4.30439 12.79248,2.86816 25.57544,6.43402 38.55841,7.65979 25.83326,2.4392 50.6178,-2.38465 72.96076,-16.07233 23.41748,-14.34601 40.1784,-33.95673 44.37848,-62.09631 0.84192,-5.64045 -0.19562,-11.56141 -0.36652,-17.35309 -0.63391,-0.0339 -1.26782,-0.0677 -1.90179,-0.10163 -3.15497,7.1189 -6.31,14.23786 -9.80377,22.02845 M 205.72093,498.33267 170.09975,500.3663 c 6.47404,5.01651 219.57734,8.58252 234.61515,4.79517 v -13.56751 c -66.2842,2.24137 -132.16149,4.46897 -198.99397,6.73871 m 155.81685,43.56058 c -15.4393,0.68127 -26.8317,12.42712 -26.48679,27.30847 0.31342,13.5224 12.47794,25.60852 25.70966,25.54388 14.21011,-0.0694 26.82907,-12.08886 27.26044,-25.96539 0.4559,-14.66498 -10.35761,-26.03393 -26.48331,-26.88696 m 286.42011,-61.31912 c -29.36316,2.02447 -58.72638,4.04892 -88.70685,6.11593 0.35571,4.29062 0.6477,7.81275 0.99261,11.97303 44.02771,-1.76471 87.40662,-3.50342 130.78552,-5.24213 -6.70477,-5.23874 -13.50232,-9.40005 -20.44909,-13.29517 -1.47522,-0.82714 -3.51142,-1.01428 -5.26026,-0.92593 -5.4859,0.27731 -10.95806,0.82678 -17.36193,1.37427 m 127.60839,337.4985 c 7.56128,-3.7901 15.69635,-6.75708 22.5633,-11.54333 13.86334,-9.66285 19.79468,-26.28632 15.84765,-41.26007 -0.57971,-2.19941 -1.85034,-4.21656 -3.27374,-7.36194 -2.1001,4.33343 -3.55591,7.30731 -4.98627,10.29345 -9.19311,19.19245 -23.8197,32.20392 -44.091,38.81751 -14.32568,4.67377 -29.00696,5.80505 -43.94568,4.52527 -2.30243,-0.19721 -4.61963,-0.22168 -6.93005,-0.32605 -0.0162,0.50928 -0.0324,1.01849 -0.0487,1.52777 20.49494,10.74615 41.92426,11.94977 64.86444,5.32739 M 320.16205,221.70734 c 5.07763,-6.4968 11.84363,-10.43584 19.8782,-11.33941 5.89438,-0.66288 11.96952,-0.26979 17.91538,0.23093 5.9812,0.50374 11.90216,1.72246 17.84955,2.62787 0.23233,-0.35005 0.46469,-0.70009 0.69705,-1.05014 -2.19577,-2.37917 -4.11029,-5.12228 -6.63608,-7.07446 -10.87796,-8.40744 -23.41748,-11.99926 -36.99735,-10.81534 -11.60531,1.01176 -20.829,6.61867 -26.73889,16.96933 -3.27615,5.7379 -4.41473,11.94839 -2.46914,18.28105 0.63305,2.06055 2.77233,4.78212 4.54699,5.04956 1.74726,0.26329 4.32453,-1.84286 5.78626,-3.55197 2.24866,-2.62918 3.85538,-5.80739 6.16803,-9.32742 M 175.38036,551.60895 c 1.79359,-0.37085 3.58598,-0.74756 5.38096,-1.11157 25.97028,-5.26764 52.0119,-10.09882 78.64288,-10.06946 18.92505,0.0209 37.0597,3.70178 53.85636,12.84021 0.60919,0.33142 1.36786,0.388 2.05688,0.57269 0.34253,-0.41516 0.68509,-0.83038 1.02765,-1.2456 -2.68597,-2.98096 -4.98535,-6.47443 -8.13043,-8.84675 -9.40884,-7.09722 -20.36447,-10.62103 -31.97717,-11.69812 -35.07227,-3.25293 -68.62326,3.19019 -101.0269,16.46778 -1.59288,0.65265 -3.07795,1.56854 -4.61321,2.36181 0.10082,0.29084 0.20162,0.58161 0.30243,0.87244 1.23215,0 2.46431,0 4.48055,-0.14343 m 301.97276,-43.81748 c 2.35522,-6.29867 0.15668,-10.9425 -5.41001,-14.18725 5.28559,-7.41571 4.15287,-14.67157 -3.01538,-16.14108 -6.50369,-1.33332 -13.36847,-0.90561 -20.11303,-1.25632 v 38.76364 c 6.31878,0 12.29236,0.23938 18.23593,-0.0796 4.34839,-0.23346 7.97433,-2.25098 10.30249,-7.0994 m 35.47476,7.08799 c 0.62036,-3.07764 1.24078,-6.15528 1.9834,-9.83924 h -15.56134 c 0.0987,-2.14252 0.17764,-3.85599 0.27276,-5.92035 h 11.16123 v -8.51834 c -2.77393,0 -5.25546,-0.12332 -7.72,0.0289 -3.6965,0.22824 -4.84821,-1.16641 -3.24747,-5.02783 h 14.51596 c -0.15491,-3.3497 -0.28882,-6.24637 -0.42987,-9.29669 h -24.13318 v 38.30624 c 0.6547,0.16016 0.97678,0.30713 1.29914,0.30774 6.98819,0.0137 13.97644,0.0111 21.85937,-0.0404 m 330.80194,188.6358 c -6.8905,-1.57923 -12.60809,0.38153 -16.50415,6.25238 -3.1579,4.75854 -4.52997,9.9638 -1.27826,15.43945 3.82685,6.44403 10.32105,9.28345 17.87061,7.71033 6.16363,-1.28424 11.26013,-6.95764 11.85071,-13.19208 0.61456,-6.4881 -3.7356,-12.70154 -11.93891,-16.21008 M 722.90375,675.49689 c -3.07648,-10.66101 -5.84754,-21.4444 -12.03705,-31.80518 -5.00452,18.61011 4.91571,56.37781 17.74744,64.23657 -1.84375,-10.54382 -3.68744,-21.08764 -5.71039,-32.43139 M 263.58582,847.92706 c 2.97723,-4.38415 3.44146,-8.99627 0.69458,-13.5711 -2.3899,-3.98035 -6.03959,-6.10913 -10.82007,-5.77753 -5.78818,0.40155 -10.44713,4.44665 -11.61447,9.96655 -1.01793,4.8133 1.18768,9.83838 5.44042,12.39533 5.26594,3.16595 10.51343,2.35547 16.29954,-3.01325 M 845.53485,476.94504 c 7.52924,1.06976 11.30151,-2.79026 12.82123,-9.69788 0.24689,-1.12228 0.88049,-2.15408 1.20239,-3.26617 2.26496,-7.82416 1.90729,-15.52372 -0.47217,-22.39289 -8.27258,11.96305 -16.62957,24.04807 -24.98077,36.12479 3.2793,-0.22479 6.89819,-0.4729 11.42932,-0.76785 M 543.26514,207.10232 c 8.18646,-1.60774 12.39459,-7.58171 10.16943,-14.43652 -1.92157,-5.91939 -7.77521,-9.5777 -13.53375,-8.45808 -5.2486,1.02043 -9.93183,7.02586 -9.66364,12.39203 0.30573,6.11837 4.87012,10.06859 13.02796,10.50257 m 302.51165,435.65024 c -1.16638,-2.10809 -2.33276,-4.21624 -3.53491,-6.38904 -0.95715,0.5575 -1.60272,0.70124 -1.76056,1.05964 -3.5437,8.05059 -7.26617,16.0354 -10.42328,24.23718 -1.32128,3.43262 1.45704,4.94586 4.48554,4.77753 4.80701,-0.26734 9.59039,-0.97168 14.38092,-1.51685 4.07208,-0.46338 4.98065,-2.57928 3.40356,-6.24164 -2.17254,-5.04474 -4.17865,-10.16125 -6.55127,-15.92682 m -219.2987,-319.8059 c 15.71844,-4.07633 25.67944,-18.95197 22.44354,-32.02012 -9.28088,10.57197 -18.98181,21.62244 -28.98089,33.01252 2.00543,-0.30469 3.8825,-0.58988 6.53735,-0.9924 M 440.7814,160.1192 c -0.66696,0.73616 -1.44723,1.39865 -1.98193,2.22083 -2.72513,4.19033 -2.09372,9.02664 1.51599,12.13798 3.6391,3.13664 9.34876,3.29247 12.87302,0.35132 3.61004,-3.0128 4.4393,-7.98157 2.03122,-12.17133 -2.7735,-4.82557 -7.77564,-5.91825 -14.4383,-2.5388 m 157.34928,670.56622 c 4.37512,0.74891 8.44873,-0.26367 9.97473,-4.53857 0.91504,-2.56342 0.61566,-6.32172 -0.66675,-8.72827 -1.88342,-3.53436 -5.66406,-5.14417 -9.88178,-3.87909 -3.87579,1.1626 -6.11029,3.97308 -6.56018,7.97156 -0.53961,4.79583 2.34986,7.32031 7.13398,9.17437 m -418.3861,11.45783 c -4.53624,2.06518 -6.94217,5.83325 -5.54466,10.43011 0.75938,2.49787 3.70129,5.1186 6.26395,6.09406 3.67169,1.39764 8.2057,0.70135 9.97648,-3.29242 1.1747,-2.64948 1.23119,-6.60834 0.10794,-9.27258 -1.68814,-4.00415 -5.64738,-5.37763 -10.80371,-3.95917 M 506.59836,396.02969 c 2.86075,-3.62506 4.03857,-7.90228 0.79343,-11.34585 -1.93021,-2.04822 -5.74576,-3.30347 -8.65503,-3.2038 -3.89972,0.13358 -7.10108,3.25275 -6.92127,7.24378 0.13931,3.09222 1.62033,6.90402 3.8411,8.93444 3.11254,2.84574 7.16327,1.80484 10.94177,-1.62857 M 620.20892,189.31987 c -6.45324,-4.82069 -13.56939,-2.72638 -14.37884,4.26865 -0.46753,4.03917 1.03869,7.25912 4.74304,9.01228 3.47656,1.64537 6.89716,1.10106 9.56476,-1.76128 3.17651,-3.40846 2.85962,-7.17589 0.071,-11.51965 M 508.5929,337.1232 c 3.65936,-2.40527 4.96008,-5.70825 3.34362,-9.81461 -1.66128,-4.22024 -6.25463,-6.27337 -10.12884,-4.77493 -4.0076,1.55008 -6.29859,6.18131 -4.99637,10.10053 1.58899,4.7824 5.59433,6.52349 11.78159,4.48901 M 380.92102,852.45099 c -3.25769,-0.82135 -5.86649,0.44488 -6.68823,3.45312 -0.51969,1.90247 -0.16858,5.03241 1.09308,6.17505 1.4924,1.3515 4.57425,1.90253 6.61181,1.38947 1.57462,-0.39649 3.82691,-3.17737 3.59595,-4.52399 -0.38254,-2.23041 -1.22186,-5.4192 -4.61261,-6.49365 M 272.77362,369.31955 c -1.48254,-1.6095 -2.77139,-3.52988 -4.5618,-4.64523 -0.56079,-0.34943 -2.93167,1.2012 -3.62002,2.38058 -0.54941,0.94141 0.078,3.78565 0.38852,3.81809 2.225,0.23236 4.50409,-0.0183 6.76132,-0.18049 0.23468,-0.0169 0.43893,-0.45727 1.03198,-1.37295 m 131.0228,-160.85057 c 1.65316,-0.52074 1.76214,-0.10442 3.00985,-1.12218 0.45041,-0.36737 0.0726,-3.22841 -0.88467,-3.86101 -1.00644,-0.66514 -3.7807,-0.33206 -4.00687,0.26691 -0.55877,1.47995 0.10892,2.59117 0.79624,4.68845 m -90.54306,639.50093 c 1.03705,-1.59412 2.30935,-3.10413 2.93176,-4.84632 0.14081,-0.3941 -2.31702,-2.49475 -2.98749,-2.24194 -1.48947,0.56152 -3.44076,2.00104 -3.61944,3.30054 -0.15546,1.13013 1.86486,2.55957 3.67517,3.78772 z"
     id="path1"
     style="fill:#272838;fill-opacity:1"
     sodipodi:nodetypes="cccccccccssccssccsssccssscsssssccssssscscscsscscssssssssccsssccscssssssssssscscssssssssssccssssssccssssscscsssssccsssssscsccssssscssssssssscsscccsssssssscssssssssscssssccssssssssccssscssssccsssssssssssscccssscssssccssscccssscccccsssccccsssssccsssccssccsssscccccccccssscccccscccsscsssccccsscccssssscccsscccsscccccsccscccccccsccccccccssssccccccssssccscccccsssccccssssccccccssssccssssccssssccssssccsssccsssccssssccssssccsssccsssc" /><path
     fill="#7DBCC0"
     opacity="1.000000"
     stroke="none"
     d=" M820.995483,216.002228   C821.108643,216.079147 821.238586,216.141861 821.368530,216.204590   C821.224304,216.235779 821.080139,216.266968 820.990845,216.128601   C821.045715,215.959030 821.012207,215.988052 820.995483,216.002228  z"
     id="path41" /><path
     fill="#36364A"
     opacity="1.000000"
     stroke="none"
     d=" M251.572784,642.662109   C241.503891,645.541626 231.775345,648.252380 220.926804,651.275269   C220.926804,648.306763 220.930801,646.746521 220.926178,645.186218   C220.881836,630.195984 220.910095,615.204834 220.723022,600.216370   C220.688980,597.487854 221.064102,595.562683 224.105255,595.344482   C232.693558,594.728149 241.315186,593.481567 249.871414,593.817017   C258.661774,594.161621 267.096191,597.190552 269.797577,606.815735   C272.825226,617.603333 270.683960,627.774109 262.336212,635.750488   C259.397430,638.558594 255.417618,640.277222 251.572784,642.662109  z"
     id="path42"
     style="fill:#272838;fill-opacity:1" /><path
     fill="#454557"
     opacity="1.000000"
     stroke="none"
     d=" M461.314056,506.448608   C460.364410,504.191589 459.793762,502.062012 459.223145,499.932495   C461.093475,499.637787 463.159760,498.732849 464.769501,499.249695   C465.966156,499.633972 466.571014,501.861359 467.439453,503.267822   C465.523987,504.370575 463.608521,505.473328 461.314056,506.448608  z"
     id="path43"
     style="fill:#272838;fill-opacity:1" /><path
     fill="#454557"
     opacity="1"
     stroke="none"
     d="m 458.83875,489.02261 c 0.79238,-1.76996 1.34225,-3.85009 2.49581,-4.26937 1.01038,-0.36732 3.0376,0.84127 3.95703,1.91671 0.52683,0.61624 -0.26373,3.42453 -0.45385,3.42374 -1.99387,-0.008 -3.98633,-0.38477 -5.99899,-1.07108 z"
     id="path44"
     style="display:inline;fill:#272838;fill-opacity:1" /></g></svg>
